<svg width="665" height="110" viewBox="0 0 665 110" fill="none" xmlns="http://www.w3.org/2000/svg">
<path d="M2.99571 16.8819L42.8564 9.38512C55.6974 6.97004 66.2527 7.83048 74.5221 11.9664C82.7915 16.1024 87.9472 23.5319 89.9892 34.2549C92.0312 44.9779 89.9301 53.5886 83.6858 60.087C77.5307 66.5687 67.9881 71.0254 55.0579 73.4573L46.3634 75.0925L51.1985 100.482C51.3841 101.457 51.1877 102.366 50.6094 103.209C50.031 104.052 49.2513 104.566 48.2704 104.75L20.7157 109.933C19.7348 110.117 18.8201 109.922 17.9717 109.347C17.1233 108.773 16.6063 107.998 16.4207 107.023L0.067658 21.1503C-0.11798 20.1754 0.0783921 19.2665 0.656773 18.4233C1.23515 17.5802 2.0148 17.0664 2.99571 16.8819ZM38.2016 35.8711L41.0115 50.6263L50.3748 48.8653C51.9799 48.5634 53.297 47.719 54.326 46.3322C55.3382 44.8567 55.6333 43.0112 55.2114 40.7957C54.7895 38.5802 53.9446 36.8114 52.6768 35.4894C51.409 34.1673 49.705 33.7076 47.5649 34.1101L38.2016 35.8711Z" fill="#FF6B01"/>
<path d="M126.628 72.0012L164.131 75.9184C165.124 76.0221 165.943 76.4705 166.589 77.2635C167.235 78.0565 167.506 78.9463 167.402 79.933L165.253 100.25C165.149 101.236 164.698 102.051 163.9 102.693C163.102 103.335 162.206 103.604 161.214 103.501L92.9773 96.3734C91.9845 96.2697 91.1649 95.8214 90.5188 95.0283C89.8726 94.2353 89.6017 93.3455 89.706 92.3588L98.8986 5.44064C99.0029 4.45396 99.4541 3.63953 100.252 2.99736C101.05 2.35519 101.945 2.08596 102.938 2.18966L130.016 5.01798C131.009 5.12169 131.829 5.57004 132.475 6.36306C133.121 7.15607 133.392 8.04592 133.287 9.03261L126.628 72.0012Z" fill="#FF6B01"/>
<path d="M188.522 8.09096L217.615 2.99304C220.832 2.42921 223.103 3.54239 224.428 6.33258L269.407 86.097C269.544 86.3478 269.667 86.7841 269.777 87.4058C269.872 87.9388 269.661 88.5709 269.146 89.3023C268.704 89.9292 268.081 90.3132 267.277 90.4541L242.475 94.8003C239.793 95.2701 237.853 94.4653 236.655 92.3857L231.877 84.156L203.053 89.207L201.395 98.5642C200.985 100.926 199.439 102.341 196.758 102.811L171.955 107.157C171.151 107.298 170.389 107.157 169.669 106.734C169.022 106.206 168.651 105.676 168.557 105.143C168.447 104.521 168.412 104.069 168.455 103.787L183.269 13.5449C183.554 10.4728 185.305 8.65479 188.522 8.09096ZM205.281 62.0282L220.43 59.3735L208.391 35.9311L205.281 62.0282Z" fill="#FF6B01"/>
<path d="M305.56 109.244H278.878C277.879 109.244 277.017 108.883 276.291 108.161C275.565 107.44 275.202 106.583 275.202 105.591V78.939L244.572 18.7352C244.39 18.3744 244.299 17.8784 244.299 17.247C244.299 16.6157 244.571 16.0294 245.116 15.4883C245.751 14.8569 246.477 14.5412 247.294 14.5412H272.888C275.61 14.5412 277.516 15.6686 278.605 17.9235L292.219 45.1166L305.832 17.9235C306.921 15.6686 308.827 14.5412 311.55 14.5412H337.143C337.96 14.5412 338.641 14.8569 339.185 15.4883C339.821 16.0294 340.138 16.6157 340.138 17.247C340.138 17.8784 340.048 18.3744 339.866 18.7352L309.236 78.939V105.591C309.236 106.583 308.873 107.44 308.147 108.161C307.421 108.883 306.558 109.244 305.56 109.244Z" fill="#FF6B01"/>
<path d="M391.389 0.126685L430.214 5.54933C443.335 7.38199 453.659 12.1483 461.185 19.8482C468.814 27.4714 471.807 37.0885 470.165 48.6994L467.342 68.6614C465.624 80.8082 460.189 89.4303 451.037 94.5275C441.884 99.6247 430.567 101.232 417.086 99.3491L378.126 93.9076C377.138 93.7695 376.334 93.293 375.716 92.4781C375.098 91.6631 374.859 90.7644 374.998 89.782L387.237 3.23558C387.376 2.25311 387.856 1.45483 388.676 0.840725C389.496 0.226622 390.4 -0.0113917 391.389 0.126685ZM417.757 30.4502L411.883 71.9817L420.646 73.2056C423.702 73.6323 426.255 73.0781 428.305 71.5429C430.457 69.9308 431.786 67.3385 432.291 63.7659L435.114 43.804C436.125 36.6588 433.26 32.6155 426.519 31.674L417.757 30.4502Z" fill="#FF6B01"/>
<path d="M482.759 17.3318C490.361 9.82674 500.977 5.36241 514.606 3.93883C528.235 2.51524 539.512 4.73819 548.438 10.6077C557.443 16.378 562.587 25.3179 563.867 37.4272L566.087 58.4168C567.387 70.7055 564.271 80.508 556.741 87.8242C549.291 95.0413 538.661 99.3711 524.852 100.814C511.042 102.256 499.693 100.222 490.806 94.7112C482 89.1013 476.947 80.1521 475.647 67.8633L473.427 46.8738C472.137 34.6748 475.248 24.8274 482.759 17.3318ZM514.481 72.6493C516.476 74.2547 519.008 74.8972 522.077 74.5766C525.146 74.2561 527.488 73.1046 529.103 71.122C530.719 69.1395 531.332 66.3094 530.943 62.6318L528.552 40.0277C528.173 36.4397 526.986 33.843 524.991 32.2376C522.986 30.5425 520.45 29.8552 517.381 30.1757C514.312 30.4963 511.975 31.6927 510.369 33.7649C508.753 35.7474 508.135 38.5327 508.515 42.1206L510.905 64.7247C511.294 68.4024 512.486 71.0439 514.481 72.6493Z" fill="#FF6B01"/>
<path d="M625.21 2.79338L651.746 0.0216283C652.739 -0.0820764 653.634 0.187156 654.432 0.829326C655.23 1.4715 655.681 2.28592 655.786 3.27261L664.978 90.1908C665.083 91.1774 664.812 92.0673 664.166 92.8603C663.519 93.6533 662.7 94.1017 661.707 94.2054L635.171 96.9771C634.178 97.0808 633.282 96.8116 632.484 96.1694C631.686 95.5273 631.235 94.7128 631.131 93.7262L628.057 64.6637L606.124 66.9547L609.198 96.0171C609.302 97.0038 609.031 97.8936 608.385 98.6866C607.739 99.4797 606.919 99.928 605.927 100.032L579.39 102.803C578.397 102.907 577.507 102.683 576.718 102.13C575.92 101.488 575.464 100.629 575.351 99.5525L566.158 12.6343C566.054 11.6477 566.325 10.7578 566.971 9.96479C567.617 9.17178 568.436 8.72342 569.429 8.61971L595.966 5.84796C596.958 5.74426 597.854 6.01349 598.652 6.65566C599.45 7.29783 599.901 8.11226 600.005 9.09894L602.994 37.3541L624.927 35.0631L621.938 6.80801C621.834 5.82132 622.105 4.93147 622.751 4.13846C623.397 3.34544 624.217 2.89708 625.21 2.79338Z" fill="#FF6B01"/>
<path d="M336.123 52H363.877C364.454 52 364.952 52.2721 365.371 52.8163C365.79 53.3605 366 54.0068 366 54.7551V69.2449C366 69.9932 365.79 70.6395 365.371 71.1837C364.952 71.7279 364.454 72 363.877 72H336.123C335.546 72 335.048 71.7279 334.629 71.1837C334.21 70.6395 334 69.9932 334 69.2449V54.7551C334 54.0068 334.21 53.3605 334.629 52.8163C335.048 52.2721 335.546 52 336.123 52Z" fill="#FF6B01"/>
</svg>
